<svg width="26" height="26" viewBox="0 0 26 26" fill="none" xmlns="http://www.w3.org/2000/svg">
<path d="M26 13C26 16.4478 24.6304 19.7544 22.1924 22.1924C19.7544 24.6304 16.4478 26 13 26C9.55219 26 6.24558 24.6304 3.80761 22.1924C1.36964 19.7544 0 16.4478 0 13C0 9.55219 1.36964 6.24558 3.80761 3.80761C6.24558 1.36964 9.55219 0 13 0C16.4478 0 19.7544 1.36964 22.1924 3.80761C24.6304 6.24558 26 9.55219 26 13ZM13.8125 7.3125C13.8125 7.09701 13.7269 6.89035 13.5745 6.73798C13.4222 6.5856 13.2155 6.5 13 6.5C12.7845 6.5 12.5778 6.5856 12.4255 6.73798C12.2731 6.89035 12.1875 7.09701 12.1875 7.3125V16.7261L8.70025 13.2372C8.54768 13.0847 8.34076 12.999 8.125 12.999C7.90924 12.999 7.70232 13.0847 7.54975 13.2372C7.39718 13.3898 7.31147 13.5967 7.31147 13.8125C7.31147 14.0283 7.39718 14.2352 7.54975 14.3878L12.4247 19.2628C12.5002 19.3384 12.5899 19.3984 12.6886 19.4394C12.7873 19.4804 12.8931 19.5015 13 19.5015C13.1069 19.5015 13.2127 19.4804 13.3114 19.4394C13.4101 19.3984 13.4998 19.3384 13.5753 19.2628L18.4503 14.3878C18.6028 14.2352 18.6885 14.0283 18.6885 13.8125C18.6885 13.5967 18.6028 13.3898 18.4503 13.2372C18.2977 13.0847 18.0908 12.999 17.875 12.999C17.6592 12.999 17.4523 13.0847 17.2997 13.2372L13.8125 16.7261V7.3125Z" fill="white"/>
</svg>
