<svg width="148" height="70" viewBox="0 0 148 70" fill="none" xmlns="http://www.w3.org/2000/svg">
<g clip-path="url(#clip0_197_72)">
<path fill-rule="evenodd" clip-rule="evenodd" d="M58.168 17.957H78.8608L82.0109 24.7312L80.9247 25.242C78.372 22.6076 76.9599 21.1828 76.6883 20.9947C75.4392 20.1882 73.4839 19.7581 70.7955 19.7581H66.4777V29.5699H69.8993C71.3386 29.5699 72.4249 29.1936 73.1037 28.414C73.6197 27.8495 74.1085 26.8011 74.5702 25.2957H75.9008V35.6183H74.4344C74.19 34.1129 73.837 33.0914 73.4025 32.5269C72.7779 31.7474 71.8003 31.3441 70.4153 31.3441H66.4777V38.6828C66.4777 40 66.9122 40.914 67.8083 41.371C68.4329 41.6936 69.4649 41.8818 70.9313 41.8818C73.3753 41.8818 75.0861 41.7474 76.0637 41.4785C77.0414 41.1828 77.9375 40.5914 78.7522 39.6775C79.7841 38.3603 80.816 37.0431 81.848 35.7258L82.9614 36.156C81.7122 39.4355 80.8975 41.9355 80.4902 43.656H58.2223V42.1237C59.5801 41.9086 60.4762 41.5861 60.9379 41.1828C61.5082 40.699 61.8069 39.8119 61.8069 38.5753V22.285C61.8069 20.6452 60.5848 19.7043 58.168 19.4893V17.957Z" fill="#004191"/>
<path fill-rule="evenodd" clip-rule="evenodd" d="M56.8103 48.8709L69.3292 48.844C69.7637 50.2688 70.171 51.4247 70.5784 52.2849L69.8995 52.5537C69.3835 51.9623 68.8947 51.3709 68.3787 50.7795C67.9714 50.3494 67.5097 50.0537 67.0209 49.8924C66.4778 49.758 65.5817 49.6774 64.3596 49.6774V58.9785C64.3596 59.4892 64.6312 59.8387 65.12 60.0268C65.2829 60.0806 65.7989 60.1881 66.6679 60.3225V61.129C65.3101 61.0752 63.9251 61.0483 62.5402 61.0483C61.8341 61.0483 60.7751 61.0752 59.3901 61.129V60.3225C60.3134 60.2957 60.9108 60.1881 61.2367 60C61.644 59.758 61.8341 59.2742 61.8341 58.5483V49.7043H61.0738C60.1505 49.7043 59.4173 49.8118 58.8741 50.0537C58.4396 50.2419 58.0051 50.5645 57.5978 51.0215C57.1633 51.5322 56.756 52.043 56.3215 52.5537L55.6426 52.258C55.9684 51.5322 56.3486 50.3763 56.8103 48.8709ZM71.9905 60.3225L71.9633 60.3494C72.8051 60.2688 73.3754 60.1344 73.6741 59.8656C73.9729 59.6236 74.1086 59.1397 74.1086 58.4677V52.2043C74.1086 51.1559 74.0543 50.5376 73.9457 50.3763C73.7284 49.9193 73.0767 49.6774 72.0448 49.6505V48.844C73.294 48.8709 74.2173 48.8978 74.8147 48.8978C75.1949 48.8978 75.7651 48.8978 76.5255 48.8709C77.313 48.8709 77.8833 48.844 78.2907 48.844C82.4184 48.844 84.4551 49.8118 84.4551 51.7473C84.4551 52.6613 84.1835 53.3871 83.6675 53.8978C83.3417 54.2204 82.6084 54.6774 81.4679 55.2957L85.5141 59.4623C86.0573 60 86.7362 60.2957 87.5508 60.3494L87.5237 61.1021C87.1435 61.1021 86.5461 61.1021 85.7585 61.1021C85.2969 61.1021 84.618 61.1021 83.6947 61.1021C82.4455 59.6505 80.7347 57.8225 78.5894 55.5914H76.607V58.6559C76.607 59.3279 76.7699 59.7849 77.1229 60C77.3945 60.1881 77.9376 60.3225 78.7523 60.3494V61.0752L75.2492 60.9677C74.3802 60.9677 73.294 60.9946 71.9905 61.0752V60.3225ZM77.5846 54.7849H78.4536C79.3497 54.7849 80.1373 54.543 80.789 54.0322C81.4136 53.5483 81.7395 52.9301 81.7395 52.1774C81.7395 50.5107 80.6261 49.6505 78.3993 49.6505H77.0143C76.96 49.6505 76.9057 49.6505 76.8242 49.6505C76.7428 49.6505 76.6884 49.6505 76.6341 49.6505V54.7311C76.7428 54.7311 76.9057 54.7311 77.1229 54.7311C77.313 54.7849 77.476 54.7849 77.5846 54.7849ZM87.8224 60.2957C88.7185 60.215 89.3431 59.9731 89.7233 59.5967C89.9134 59.4086 90.2121 58.8709 90.5923 57.9838C91.244 56.6129 92.1945 54.543 93.4437 51.7742C94.0411 50.3763 94.367 49.4623 94.4213 49.0053C95.0459 48.8709 95.942 48.5484 97.0554 48.0376C97.6257 49.7849 98.549 52.2311 99.8796 55.3763C100.178 56.1559 100.64 57.2849 101.292 58.8172C101.509 59.3279 101.753 59.6774 102.079 59.8656C102.324 60 102.812 60.1613 103.491 60.2688V61.0752C101.998 61.0215 101.265 60.9946 101.265 60.9946H99.0921C98.8206 60.9946 98.4675 60.9946 98.033 61.0215C97.4899 61.0483 97.1097 61.0752 96.9739 61.0752V60.2688C98.1145 60.215 98.6848 59.8924 98.6848 59.2473C98.6848 58.8978 98.549 58.3871 98.2503 57.715C98.0059 57.2043 97.7886 56.6935 97.5714 56.1828H92.5204C92.276 56.6935 92.0587 57.2043 91.8415 57.715C91.5428 58.3871 91.407 58.8978 91.407 59.2473C91.407 59.6236 91.6514 59.8924 92.113 60.0537C92.3031 60.1075 92.7376 60.1881 93.3894 60.2957V61.0215C91.9773 61.0215 90.9182 61.0215 90.2121 61.0215C89.4246 61.0215 88.6642 61.0483 87.9039 61.1021V60.2957H87.8224ZM97.2727 55.3494C96.3222 53.0376 95.589 51.3172 95.073 50.1613L92.8734 55.3494H97.2727ZM101.509 48.7903L101.536 48.7634C102.812 48.8172 103.98 48.844 105.012 48.8709C105.528 48.8709 106.723 48.8709 108.542 48.8172V49.5967C107.375 49.6505 106.804 50.0268 106.804 50.672C106.804 51.0752 107.239 52.3118 108.162 54.3548C108.76 55.672 109.357 56.9892 109.955 58.3064C110.579 56.9892 111.231 55.672 111.883 54.3548C112.833 52.3656 113.295 51.129 113.295 50.6451C113.295 50.215 113.105 49.9462 112.697 49.7849C112.236 49.7311 111.91 49.6774 111.692 49.6505V48.7634C112.561 48.844 113.43 48.8709 114.327 48.8709C114.951 48.8709 115.875 48.8709 117.124 48.8172V49.6505C116.39 49.6774 115.847 49.8118 115.521 50C115.25 50.1881 114.951 50.5645 114.625 51.1828L109.33 61.344H108.678L103.736 50.8064C103.519 50.3494 103.247 50.0268 102.894 49.8924C102.622 49.7849 102.188 49.7043 101.509 49.6505V48.7903ZM118.536 48.8709H130.186L131.951 52.0699L131.326 52.3118C129.887 51.0752 129.099 50.4032 128.937 50.2957C128.258 49.9193 127.144 49.7043 125.651 49.7043H123.234V54.3548H125.162C125.977 54.3548 126.574 54.1666 126.981 53.8172C127.253 53.5483 127.552 53.0376 127.796 52.3387H128.529V57.2311H127.687C127.552 56.5322 127.361 56.0483 127.117 55.7526C126.791 55.3763 126.221 55.1881 125.433 55.1881H123.207V58.6828C123.207 59.301 123.451 59.7311 123.94 59.9462C124.293 60.1075 124.863 60.1881 125.705 60.1881C127.063 60.1881 128.04 60.1344 128.583 60C129.154 59.8656 129.643 59.5699 130.104 59.1397C130.702 58.5215 131.272 57.9032 131.842 57.258L132.467 57.4462C131.761 59.0053 131.299 60.1881 131.082 60.9946H118.563V60.2688C119.323 60.1613 119.839 60.0268 120.084 59.8387C120.41 59.5967 120.572 59.1935 120.572 58.6021V50.8602C120.572 50.0806 119.894 49.6505 118.536 49.543V48.8709ZM134.042 60.3225C135.427 60.1881 136.133 59.758 136.133 59.0322V51.0752C136.133 50.1344 135.427 49.6505 134.042 49.6505V48.844C135.454 48.8709 136.513 48.8978 137.219 48.8978C138.061 48.8978 139.337 48.8709 141.048 48.844V49.6505C140.179 49.6774 139.609 49.758 139.31 49.8924C138.903 50.1075 138.713 50.5645 138.713 51.2365V58.7634C138.713 59.1129 138.821 59.4354 139.093 59.7043C139.337 60 139.663 60.1344 140.07 60.1344H143.193C144.714 60.1344 146.018 59.0322 147.185 56.8548L148.027 57.0967C147.403 58.5752 146.914 59.8924 146.615 61.0483H134.069V60.3225H134.042Z" fill="#004191"/>
<path fill-rule="evenodd" clip-rule="evenodd" d="M51.9222 16.6131L52.2209 32.7959L50.3743 33.0109C49.1523 28.441 46.7626 24.5701 43.178 21.4249C39.4305 18.1185 35.2213 16.4787 30.6048 16.4787C24.1145 16.4787 18.8734 19.0056 14.9358 24.0862C11.324 28.7099 9.53174 34.3281 9.53174 40.9948C9.53174 48.2529 11.0525 54.2744 14.1211 59.0056C17.76 64.6507 23.0283 67.4733 29.9802 67.4195C31.6639 67.4195 33.3747 67.1776 35.0583 66.6668C38.3714 65.6991 40.5438 64.4088 41.6301 62.8228C42.662 61.3712 43.1508 58.9249 43.1508 55.4841C43.1508 51.8819 42.6349 49.7045 41.5758 48.9518C41.1413 48.6292 38.9417 48.1185 34.9769 47.3927L34.8683 45.0271C39.6205 45.1615 46.7354 45.2421 56.2128 45.2421L56.1314 47.6077H55.4253C52.2752 47.6077 50.7002 49.7851 50.7002 54.1131V63.5486C43.7483 67.8228 36.2804 69.9733 28.3237 69.9733C20.4213 69.9733 13.7138 67.1507 8.25541 61.5324C2.74275 55.9142 0 49.1668 0 41.2905C0 33.7367 2.87853 27.2314 8.66275 21.8013C14.3383 16.4787 21.0459 13.8174 28.731 13.8174C35.3299 13.8174 42.0646 15.7529 48.8807 19.6507L51.9222 16.6131Z" fill="#004191"/>
<path fill-rule="evenodd" clip-rule="evenodd" d="M100.341 1.72043C95.2359 4.08602 94.3126 10.672 94.2855 14.2204L103.872 10.1613L100.368 1.66667C111.394 -3.01075 124.347 2.55376 129.072 14.0054C133.825 25.4301 128.638 38.6828 117.612 43.3602L114.327 35.4032L104.903 39.3817C108.515 42.6613 112.752 44.8118 116.906 43.629C111.937 45.0806 107.646 43.1989 103.6 40.0538L97.5442 41.6129L102.269 38.8441C99.0649 35.7258 97.6528 33.5215 95.3445 28.871L89.0715 30.6989L94.8829 27.6613C93.5251 24.1935 92.7104 19.6774 92.7376 16.4516C90.9453 16.7742 88.3655 17.957 86.546 18.2796C88.3112 17.1237 91.0267 15.9946 92.7919 14.8118C93.2535 8.79032 95.8334 3.65591 100.341 1.72043ZM104.523 11.7204L94.2855 16.0484C94.4212 20 95.5889 23.9247 96.7295 26.9892L108.76 21.9355L104.523 11.7204ZM109.248 23.2258L97.2726 28.2796C99.3365 32.9839 101.509 35.8333 103.709 38.1989L113.702 33.9785L109.248 23.2258ZM100.613 1.58602C105.8 -0.215054 110.905 3.62903 113.403 6.10215L103.872 10.1344L103.79 10.2151L104.415 11.7473L114.652 7.39247C117.341 10.2688 119.269 13.871 120.627 16.8548L108.705 21.9355L108.732 21.9892H108.624L109.14 23.2258L121.116 18.1183C122.989 22.957 123.532 26.5323 123.641 29.8118L113.566 34.086L114.191 35.4839L114.327 35.4301V35.457L123.641 31.5054C123.397 36.3172 121.985 40.8064 118.318 43.0645L118.346 43.0376C122.718 40.457 124.374 36.0215 125.026 30.9946L129.996 28.871C130.186 28.2258 130.321 27.5806 130.43 26.9355L125.135 29.1935C125.135 24.6774 124.592 22.2849 122.962 17.3387L129.289 14.6505C129.208 14.4355 129.127 14.2204 129.045 14.0054C128.936 13.7634 128.828 13.5215 128.719 13.2796L122.419 15.9677C120.898 12.5 118.346 8.8172 116.065 6.55914L121.414 4.27419C120.953 3.92473 120.464 3.60215 119.975 3.30645L114.87 5.45699C110.416 1.6129 105.229 -0.107527 100.803 1.47849C100.749 1.53226 100.667 1.55914 100.613 1.58602ZM108.95 0C121.55 0 131.761 10.1075 131.761 22.5806C131.761 35.0538 121.55 45.1613 108.95 45.1613C96.3493 45.1613 86.1387 35.0538 86.1387 22.5806C86.1387 10.1075 96.3765 0 108.95 0Z" fill="#004191"/>
</g>
<defs>
<clipPath id="clip0_197_72">
<rect width="148" height="70" fill="white"/>
</clipPath>
</defs>
</svg>
