<svg width="61" height="45" viewBox="0 0 61 45" fill="none" xmlns="http://www.w3.org/2000/svg">
<path d="M0 13.5555H61V30.5H0V13.5555Z" fill="#E00034"/>
<path d="M54.2222 0H6.77778C4.9802 0 3.25625 0.714085 1.98517 1.98516C0.714085 3.25624 0 4.9802 0 6.77778L0 13.5556H61V6.77778C61 4.9802 60.2859 3.25624 59.0148 1.98516C57.7438 0.714085 56.0198 0 54.2222 0Z" fill="#0098C3"/>
<path d="M30.2355 27.6753C29.2944 27.6754 28.3682 27.4403 27.541 26.9914C26.7139 26.5425 26.0121 25.894 25.4993 25.1048C24.9865 24.3156 24.6791 23.4109 24.605 22.4727C24.5308 21.5345 24.6923 20.5926 25.0747 19.7327C25.4572 18.8728 26.0484 18.1221 26.7948 17.5489C27.5412 16.9756 28.4189 16.5979 29.3484 16.4502C30.2778 16.3024 31.2294 16.3893 32.1168 16.7029C33.0041 17.0165 33.799 17.5468 34.4292 18.2457C33.6185 17.0407 32.4422 16.1279 31.0735 15.6419C29.7049 15.1559 28.2163 15.1225 26.8272 15.5464C25.4381 15.9703 24.2219 16.8293 23.3578 17.9967C22.4937 19.1641 22.0275 20.5781 22.0278 22.0305C22.0282 23.4829 22.495 24.8968 23.3596 26.0638C24.2242 27.2308 25.4408 28.0892 26.8301 28.5125C28.2194 28.9358 29.708 28.9017 31.0764 28.4151C32.4448 27.9285 33.6208 27.0152 34.4309 25.8097C33.9018 26.3978 33.2547 26.8679 32.5319 27.1893C31.809 27.5107 31.0266 27.6763 30.2355 27.6753Z" fill="white"/>
<path d="M40.1021 22.0244L38.0756 21.3059L38.9973 19.3641L37.0555 20.2876L36.3337 18.2627L35.6152 20.2893L35.6101 20.2859L33.6717 19.3675L34.5969 21.3093L32.5703 22.0311L34.5969 22.7496L33.6751 24.6914L35.6085 23.7713L35.6169 23.7679L36.3388 25.7928L37.0572 23.7662L39.0007 24.688L38.0756 22.7462L40.1021 22.0244Z" fill="white"/>
<path d="M6.77778 44.0556H54.2222C56.0198 44.0556 57.7438 43.3415 59.0148 42.0704C60.2859 40.7993 61 39.0754 61 37.2778V30.5H0V37.2778C0 39.0754 0.714085 40.7993 1.98517 42.0704C3.25625 43.3415 4.9802 44.0556 6.77778 44.0556Z" fill="#00AE65"/>
</svg>
