<svg width="62" height="43" viewBox="0 0 62 43" fill="none" xmlns="http://www.w3.org/2000/svg">
<path d="M61.3636 31.6406C61.3636 37.4654 58.1296 42.1875 51.7756 42.1875H9.58807C3.23406 42.1875 0 37.4654 0 31.6406V10.5469C0 4.72212 3.23406 0 9.58807 0H51.7756C58.1296 0 61.3636 4.72212 61.3636 10.5469V31.6406Z" fill="#EC1C24"/>
<path fill-rule="evenodd" clip-rule="evenodd" d="M38.1395 27.1534C35.9323 30.5965 31.3367 32.7682 26.5283 31.3635C21.9903 30.0346 18.8732 25.6375 19.1311 20.8953C19.3823 16.1319 22.9606 12.081 27.6108 11.2593C32.5381 10.3839 36.4961 13.0254 38.1864 15.7906C36.1835 13.8212 33.8545 12.9343 31.1277 13.2459C28.9915 13.4914 27.2062 14.4569 25.8082 16.0868C23.0718 19.272 23.1725 24.0488 26.0297 27.0546C27.6683 28.7786 29.6837 29.6808 32.0625 29.7029C34.4394 29.7201 36.4558 28.8208 38.1452 27.1582" fill="white"/>
<path d="M42.4088 17.6382L44.3552 19.4446L46.9516 18.8693L45.8327 21.2855L47.1837 23.5684L44.547 23.251L42.7837 25.2454L42.2746 22.6355L39.8315 21.577L42.1538 20.2883L42.4088 17.6382Z" fill="white"/>
</svg>
