<svg width="20" height="384" viewBox="0 0 20 384" fill="none" xmlns="http://www.w3.org/2000/svg">
<circle cx="10" cy="374" r="9.5" stroke="#004191"/>
<circle cx="10" cy="10" r="10" fill="#004191"/>
<rect x="9" y="27" width="2" height="7" rx="1" fill="#004191"/>
<rect x="9" y="41" width="2" height="7" rx="1" fill="#004191"/>
<rect x="9" y="55" width="2" height="7" rx="1" fill="#004191"/>
<rect x="9" y="349" width="2" height="7" rx="1" fill="#004191"/>
<rect x="9" y="83" width="2" height="7" rx="1" fill="#004191"/>
<rect x="9" y="335" width="2" height="7" rx="1" fill="#004191"/>
<rect x="9" y="69" width="2" height="7" rx="1" fill="#004191"/>
<rect x="9" y="153" width="2" height="7" rx="1" fill="#004191"/>
<rect x="9" y="181" width="2" height="7" rx="1" fill="#004191"/>
<rect x="9" y="167" width="2" height="7" rx="1" fill="#004191"/>
<rect x="9" y="209" width="2" height="7" rx="1" fill="#004191"/>
<rect x="9" y="195" width="2" height="7" rx="1" fill="#004191"/>
<rect x="9" y="237" width="2" height="7" rx="1" fill="#004191"/>
<rect x="9" y="223" width="2" height="7" rx="1" fill="#004191"/>
<rect x="9" y="111" width="2" height="7" rx="1" fill="#004191"/>
<rect x="9" y="139" width="2" height="7" rx="1" fill="#004191"/>
<rect x="9" y="97" width="2" height="7" rx="1" fill="#004191"/>
<rect x="9" y="125" width="2" height="7" rx="1" fill="#004191"/>
<rect x="9" y="251" width="2" height="7" rx="1" fill="#004191"/>
<rect x="9" y="279" width="2" height="7" rx="1" fill="#004191"/>
<rect x="9" y="265" width="2" height="7" rx="1" fill="#004191"/>
<rect x="9" y="293" width="2" height="7" rx="1" fill="#004191"/>
<rect x="9" y="307" width="2" height="7" rx="1" fill="#004191"/>
<rect x="9" y="321" width="2" height="7" rx="1" fill="#004191"/>
</svg>
