<svg width="50" height="50" viewBox="0 0 50 50" fill="none" xmlns="http://www.w3.org/2000/svg">
<g filter="url(#filter0_d_127_151)">
<circle cx="25" cy="23" r="18" transform="rotate(90 25 23)" fill="white"/>
<circle cx="24.7879" cy="23.2121" r="12.2121" transform="rotate(90 24.7879 23.2121)" fill="#004191"/>
<path d="M25 36C21.5522 36 18.2456 34.6304 15.8076 32.1924C13.3696 29.7544 12 26.4478 12 23C12 19.5522 13.3696 16.2456 15.8076 13.8076C18.2456 11.3696 21.5522 10 25 10C28.4478 10 31.7544 11.3696 34.1924 13.8076C36.6304 16.2456 38 19.5522 38 23C38 26.4478 36.6304 29.7544 34.1924 32.1924C31.7544 34.6304 28.4478 36 25 36ZM30.6875 23.8125C30.903 23.8125 31.1097 23.7269 31.262 23.5745C31.4144 23.4222 31.5 23.2155 31.5 23C31.5 22.7845 31.4144 22.5778 31.262 22.4255C31.1097 22.2731 30.903 22.1875 30.6875 22.1875L21.2739 22.1875L24.7628 18.7003C24.9153 18.5477 25.001 18.3408 25.001 18.125C25.001 17.9092 24.9153 17.7023 24.7628 17.5498C24.6102 17.3972 24.4033 17.3115 24.1875 17.3115C23.9717 17.3115 23.7648 17.3972 23.6122 17.5498L18.7372 22.4247C18.6616 22.5002 18.6016 22.5899 18.5606 22.6886C18.5196 22.7873 18.4985 22.8931 18.4985 23C18.4985 23.1069 18.5196 23.2127 18.5606 23.3114C18.6016 23.4101 18.6616 23.4998 18.7372 23.5753L23.6122 28.4503C23.7648 28.6028 23.9717 28.6885 24.1875 28.6885C24.4033 28.6885 24.6102 28.6028 24.7628 28.4503C24.9153 28.2977 25.001 28.0908 25.001 27.875C25.001 27.6592 24.9153 27.4523 24.7628 27.2997L21.2739 23.8125L30.6875 23.8125Z" fill="white"/>
</g>
<defs>
<filter id="filter0_d_127_151" x="0" y="0" width="50" height="50" filterUnits="userSpaceOnUse" color-interpolation-filters="sRGB">
<feFlood flood-opacity="0" result="BackgroundImageFix"/>
<feColorMatrix in="SourceAlpha" type="matrix" values="0 0 0 0 0 0 0 0 0 0 0 0 0 0 0 0 0 0 127 0" result="hardAlpha"/>
<feOffset dy="2"/>
<feGaussianBlur stdDeviation="3.5"/>
<feComposite in2="hardAlpha" operator="out"/>
<feColorMatrix type="matrix" values="0 0 0 0 0.14934 0 0 0 0 0.431676 0 0 0 0 0.779167 0 0 0 0.2 0"/>
<feBlend mode="normal" in2="BackgroundImageFix" result="effect1_dropShadow_127_151"/>
<feBlend mode="normal" in="SourceGraphic" in2="effect1_dropShadow_127_151" result="shape"/>
</filter>
</defs>
</svg>
