<svg xmlns="http://www.w3.org/2000/svg" width="32" height="32" viewBox="0 0 32 32" fill="none">
<path fill-rule="evenodd" clip-rule="evenodd" d="M3.98711 6.49663C4.40887 5.7983 6.73267 3.25827 8.39096 3.33495C8.88666 3.37603 9.32486 3.6759 9.68089 4.0237C10.4984 4.822 12.8386 7.84127 12.9715 8.47662C13.2946 10.0349 11.4378 10.9331 12.0061 12.5037C13.4548 16.0488 15.9512 18.545 19.4978 19.9923C21.0671 20.5606 21.9654 18.7038 23.5237 19.0283C24.1577 19.1612 27.1785 21.5013 27.9768 22.3187C28.3233 22.6734 28.6245 23.1129 28.6656 23.6086C28.7272 25.3544 26.0296 27.711 25.5038 28.0122C24.2632 28.8995 22.6446 28.8845 20.6713 27.967C15.1652 25.6762 6.36568 17.0429 4.0323 11.3288C3.13948 9.36666 3.07786 7.73721 3.98711 6.49663Z" stroke="white" stroke-width="1.5" stroke-linecap="round" stroke-linejoin="round"/>
</svg>