<svg width="26" height="26" viewBox="0 0 26 26" fill="none" xmlns="http://www.w3.org/2000/svg">
<path fill-rule="evenodd" clip-rule="evenodd" d="M24.375 13C24.375 9.98316 23.1766 7.08989 21.0433 4.95666C18.9101 2.82343 16.0168 1.625 13 1.625C9.98316 1.625 7.08989 2.82343 4.95666 4.95666C2.82344 7.08989 1.625 9.98316 1.625 13C1.625 16.0168 2.82344 18.9101 4.95666 21.0433C7.08989 23.1766 9.98316 24.375 13 24.375C16.0168 24.375 18.9101 23.1766 21.0433 21.0433C23.1766 18.9101 24.375 16.0168 24.375 13ZM1.1365e-06 13C1.43791e-06 9.55218 1.36964 6.24558 3.80761 3.80761C6.24559 1.36964 9.55219 -1.43791e-06 13 -1.1365e-06C16.4478 -8.35079e-07 19.7544 1.36964 22.1924 3.80761C24.6304 6.24558 26 9.55219 26 13C26 16.4478 24.6304 19.7544 22.1924 22.1924C19.7544 24.6304 16.4478 26 13 26C9.55219 26 6.24558 24.6304 3.80761 22.1924C1.36964 19.7544 8.35079e-07 16.4478 1.1365e-06 13ZM18.6875 13.8125C18.903 13.8125 19.1097 13.7269 19.262 13.5745C19.4144 13.4222 19.5 13.2155 19.5 13C19.5 12.7845 19.4144 12.5778 19.262 12.4255C19.1097 12.2731 18.903 12.1875 18.6875 12.1875L9.27388 12.1875L12.7628 8.70025C12.8383 8.62471 12.8982 8.53502 12.9391 8.43632C12.98 8.33762 13.001 8.23183 13.001 8.125C13.001 8.01816 12.98 7.91238 12.9391 7.81368C12.8982 7.71497 12.8383 7.62529 12.7628 7.54975C12.6872 7.47421 12.5975 7.41428 12.4988 7.3734C12.4001 7.33251 12.2943 7.31147 12.1875 7.31147C12.0807 7.31147 11.9749 7.33251 11.8762 7.3734C11.7775 7.41428 11.6878 7.47421 11.6123 7.54975L6.73725 12.4247C6.66159 12.5002 6.60155 12.5899 6.56059 12.6886C6.51963 12.7873 6.49855 12.8931 6.49855 13C6.49855 13.1069 6.51963 13.2127 6.56059 13.3114C6.60155 13.4101 6.66159 13.4998 6.73725 13.5752L11.6123 18.4502C11.6878 18.5258 11.7775 18.5857 11.8762 18.6266C11.9749 18.6675 12.0807 18.6885 12.1875 18.6885C12.2943 18.6885 12.4001 18.6675 12.4988 18.6266C12.5975 18.5857 12.6872 18.5258 12.7628 18.4502C12.8383 18.3747 12.8982 18.285 12.9391 18.1863C12.98 18.0876 13.001 17.9818 13.001 17.875C13.001 17.7682 12.98 17.6624 12.9391 17.5637C12.8982 17.465 12.8383 17.3753 12.7628 17.2997L9.27388 13.8125L18.6875 13.8125Z" fill="white"/>
</svg>
