<svg width="50" height="50" viewBox="0 0 50 50" fill="none" xmlns="http://www.w3.org/2000/svg">
<g filter="url(#filter0_d_127_147)">
<circle cx="25" cy="23" r="18" transform="rotate(-90 25 23)" fill="white"/>
<circle cx="25.2121" cy="22.7879" r="12.2121" transform="rotate(-90 25.2121 22.7879)" fill="#004191"/>
<path d="M25 10C28.4478 10 31.7544 11.3696 34.1924 13.8076C36.6304 16.2456 38 19.5522 38 23C38 26.4478 36.6304 29.7544 34.1924 32.1924C31.7544 34.6304 28.4478 36 25 36C21.5522 36 18.2456 34.6304 15.8076 32.1924C13.3696 29.7544 12 26.4478 12 23C12 19.5522 13.3696 16.2456 15.8076 13.8076C18.2456 11.3696 21.5522 10 25 10ZM19.3125 22.1875C19.097 22.1875 18.8903 22.2731 18.738 22.4255C18.5856 22.5778 18.5 22.7845 18.5 23C18.5 23.2155 18.5856 23.4222 18.738 23.5745C18.8903 23.7269 19.097 23.8125 19.3125 23.8125L28.7261 23.8125L25.2372 27.2997C25.0847 27.4523 24.999 27.6592 24.999 27.875C24.999 28.0908 25.0847 28.2977 25.2372 28.4502C25.3898 28.6028 25.5967 28.6885 25.8125 28.6885C26.0283 28.6885 26.2352 28.6028 26.3878 28.4502L31.2628 23.5752C31.3384 23.4998 31.3984 23.4101 31.4394 23.3114C31.4804 23.2127 31.5015 23.1069 31.5015 23C31.5015 22.8931 31.4804 22.7873 31.4394 22.6886C31.3984 22.5899 31.3384 22.5002 31.2628 22.4247L26.3877 17.5497C26.2352 17.3972 26.0283 17.3115 25.8125 17.3115C25.5967 17.3115 25.3898 17.3972 25.2372 17.5497C25.0847 17.7023 24.999 17.9092 24.999 18.125C24.999 18.3408 25.0847 18.5477 25.2372 18.7003L28.7261 22.1875L19.3125 22.1875Z" fill="white"/>
</g>
<defs>
<filter id="filter0_d_127_147" x="0" y="0" width="50" height="50" filterUnits="userSpaceOnUse" color-interpolation-filters="sRGB">
<feFlood flood-opacity="0" result="BackgroundImageFix"/>
<feColorMatrix in="SourceAlpha" type="matrix" values="0 0 0 0 0 0 0 0 0 0 0 0 0 0 0 0 0 0 127 0" result="hardAlpha"/>
<feOffset dy="2"/>
<feGaussianBlur stdDeviation="3.5"/>
<feComposite in2="hardAlpha" operator="out"/>
<feColorMatrix type="matrix" values="0 0 0 0 0.14934 0 0 0 0 0.431676 0 0 0 0 0.779167 0 0 0 0.2 0"/>
<feBlend mode="normal" in2="BackgroundImageFix" result="effect1_dropShadow_127_147"/>
<feBlend mode="normal" in="SourceGraphic" in2="effect1_dropShadow_127_147" result="shape"/>
</filter>
</defs>
</svg>
